<?xml version="1.0" encoding="utf-8"?>
<!-- Generator: Adobe Illustrator 23.0.2, SVG Export Plug-In . SVG Version: 6.00 Build 0)  -->
<svg version="1.1" id="레이어_1" xmlns="http://www.w3.org/2000/svg" xmlns:xlink="http://www.w3.org/1999/xlink" x="0px"
	 y="0px" viewBox="0 0 200 200" style="enable-background:new 0 0 200 200;" xml:space="preserve">
<style type="text/css">
	.st0{fill:#999899;}
</style>
<g>
	<path class="st0" d="M133.57,18.4H64.95c-8.53,0-15.45,6.92-15.45,15.45v132.28c0,8.53,6.92,15.45,15.45,15.45h68.62
		c8.53,0,15.45-6.92,15.45-15.45V33.85C149.02,25.32,142.1,18.4,133.57,18.4z M100.7,173.79c-6.13,0.95-11.33-4.26-10.39-10.38
		c0.59-3.82,3.7-6.93,7.52-7.52c6.12-0.94,11.31,4.26,10.38,10.38C107.63,170.08,104.52,173.2,100.7,173.79z M140.48,150.8H58.04
		V39.05h82.44V150.8z"/>
</g>
</svg>
