<?xml version="1.0" encoding="utf-8"?>
<!-- Generator: Adobe Illustrator 23.0.2, SVG Export Plug-In . SVG Version: 6.00 Build 0)  -->
<svg version="1.1" xmlns="http://www.w3.org/2000/svg" xmlns:xlink="http://www.w3.org/1999/xlink" x="0px" y="0px"
	 viewBox="0 0 120 66" style="enable-background:new 0 0 120 66;" xml:space="preserve">
<style type="text/css">
	.st0{display:none;}
	.st1{display:inline;fill:#FFFFFF;}
	.st2{display:inline;}
	.st3{fill:#D49E14;}
	.st4{fill:#BD8717;}
	.st5{fill:#F5C632;}
	.st6{fill:#FFFFFF;stroke:#000000;stroke-miterlimit:10;}
	.st7{fill:#F9ECA8;}
	.st8{fill:#FFFFFF;stroke:#000000;stroke-width:0.8217;stroke-miterlimit:10;}
	.st9{fill:#FFFFFF;stroke:#000000;stroke-width:1.0557;stroke-miterlimit:10;}
	.st10{fill:#D2D2D2;}
</style>
<g id="레이어_4" class="st0">
	<rect class="st1" width="120" height="66"/>
</g>
<g id="레이어_1" class="st0">
	<g class="st2">
		<polygon class="st3" points="15.96,3.51 79.14,0.11 110.59,7.14 47.68,13.14 		"/>
		<polygon class="st4" points="79.14,0.11 79.14,33.1 15.96,33.1 15.96,3.51 		"/>
		<polygon class="st3" points="15.96,3.51 15.96,56.27 47.68,65.89 47.68,13.14 		"/>
		<polygon class="st5" points="47.68,13.14 47.68,65.89 110.59,59.89 110.59,7.14 		"/>
		<g class="st0">
			<path class="st2" d="M77.33,40.75l-2.74-5.64l2.2-0.22l0.81,2.03c0.24,0.66,0.48,1.28,0.74,1.96l0.06-0.01
				c0.26-0.74,0.52-1.4,0.76-2.11l0.81-2.19l2.14-0.21l-2.73,6.18l0,3.28l-2.05,0.2L77.33,40.75z"/>
			<path class="st2" d="M82.04,34.38l5.69-0.56l0,1.74l-3.63,0.36l0,1.85l3.09-0.3l0,1.74l-3.09,0.3l0,2.12l3.77-0.37l0,1.74
				l-5.83,0.57L82.04,34.38z"/>
			<path class="st2" d="M88.98,33.7l2.05-0.2l0.01,7.45l3.58-0.35l0,1.74l-5.63,0.55L88.98,33.7z"/>
			<path class="st2" d="M95.49,33.06l2.05-0.2l0.01,7.45l3.58-0.35l0,1.74l-5.64,0.55L95.49,33.06z"/>
			<path class="st2" d="M101.09,37.06c0-3,1.67-4.89,4.12-5.13c2.45-0.24,4.12,1.33,4.13,4.32c0,3-1.67,4.97-4.12,5.21
				C102.77,41.7,101.09,40.06,101.09,37.06z M107.23,36.46c0-1.84-0.78-2.85-2.02-2.73c-1.24,0.12-2.02,1.29-2.02,3.13
				c0,1.84,0.79,2.93,2.02,2.81S107.23,38.3,107.23,36.46z"/>
			<path class="st2" d="M77.15,47.33l4.3-0.42c2.61-0.26,4.64,0.27,4.64,2.7c0,1.14-0.63,2.42-1.65,2.91v0.08
				c1.28,0.21,2.28,1.07,2.28,2.77c0,2.59-2.16,3.96-4.89,4.23l-4.66,0.46L77.15,47.33z M81.32,52.01c1.38-0.14,1.99-0.79,1.99-1.71
				c0-0.98-0.65-1.3-1.97-1.17l-1.35,0.13l0,2.88L81.32,52.01z M81.59,57.39c1.55-0.15,2.35-0.79,2.35-1.95
				c0-1.12-0.79-1.49-2.35-1.34L80,54.27l0,3.28L81.59,57.39z"/>
			<path class="st2" d="M87.27,52.64c0-4.16,2.31-6.77,5.7-7.1s5.71,1.84,5.72,5.98c0,4.16-2.31,6.88-5.7,7.21
				S87.27,56.8,87.27,52.64z M95.77,51.81c0-2.55-1.09-3.95-2.8-3.78c-1.71,0.17-2.79,1.78-2.79,4.33c0,2.55,1.09,4.06,2.8,3.89
				C94.7,56.08,95.77,54.36,95.77,51.81z"/>
			<path class="st2" d="M101.8,51.08l-3.28-5.85l3.17-0.31l1.1,2.3c0.28,0.56,0.55,1.19,0.92,1.95l0.08-0.01
				c0.29-0.83,0.55-1.51,0.8-2.12l1-2.5l3.03-0.3l-3.26,6.63l3.48,6.07l-3.17,0.31l-1.24-2.47c-0.32-0.63-0.61-1.25-0.95-2
				l-0.08,0.01c-0.3,0.81-0.58,1.5-0.86,2.18l-1.17,2.71l-3.03,0.3L101.8,51.08z"/>
		</g>
		<path class="st6" d="M47.68,13.14"/>
		<polygon class="st7" points="15.96,3.51 1.81,20.39 31.82,34.7 47.68,13.14 		"/>
		<polygon class="st7" points="47.68,13.14 55.17,34.7 120,26.77 110.59,7.14 		"/>
	</g>
</g>
<g id="레이어_2">
	<g>
		
			<rect x="26" y="13.89" transform="matrix(0.9421 0.3354 -0.3354 0.9421 19.4488 -20.1623)" class="st8" width="84.22" height="64.69"/>
		<g>
			<rect x="73.4" y="30.99" transform="matrix(0.9421 0.3354 -0.3354 0.9421 15.9637 -28.779)" width="35.83" height="1.69"/>
			<rect x="70.91" y="37.99" transform="matrix(0.9421 0.3354 -0.3354 0.9421 18.1655 -27.5388)" width="35.83" height="1.69"/>
			<rect x="68.42" y="44.98" transform="matrix(0.9421 0.3354 -0.3354 0.9421 20.3673 -26.2986)" width="35.83" height="1.69"/>
			<rect x="65.93" y="51.98" transform="matrix(0.9421 0.3354 -0.3354 0.9421 22.5691 -25.0584)" width="35.83" height="1.69"/>
			<rect x="30.36" y="53.26" transform="matrix(0.9421 0.3354 -0.3354 0.9421 21.9258 -18.7671)" width="69.9" height="1.69"/>
			<rect x="28.09" y="59.64" transform="matrix(0.9421 0.3354 -0.3354 0.9421 23.9339 -17.6361)" width="69.9" height="1.69"/>
		</g>
		
			<rect x="38.6" y="18.43" transform="matrix(0.9421 0.3354 -0.3354 0.9421 13.151 -15.8763)" class="st9" width="27.9" height="23.43"/>
	</g>
	<g>
		<rect x="5.39" y="8.75" class="st8" width="84.22" height="64.69"/>
		<g>
			<rect x="46.62" y="18.91" width="35.83" height="1.69"/>
			<rect x="46.62" y="26.33" width="35.83" height="1.69"/>
			<rect x="46.62" y="33.76" width="35.83" height="1.69"/>
			<rect x="46.62" y="41.18" width="35.83" height="1.69"/>
			<rect x="12.55" y="48.61" width="69.9" height="1.69"/>
			<rect x="12.55" y="55.38" width="69.9" height="1.69"/>
		</g>
		<rect x="13.5" y="19.44" class="st9" width="27.9" height="23.43"/>
	</g>
</g>
<g id="레이어_3" class="st0">
	<g class="st2">
		<polygon class="st5" points="26.42,17.96 30.92,27.07 40.97,28.53 33.7,35.63 35.41,45.64 26.42,40.91 17.43,45.64 19.15,35.63 
			11.87,28.53 21.92,27.07 		"/>
		<polygon class="st5" points="60,17.96 64.5,27.07 74.55,28.53 67.27,35.63 68.99,45.64 60,40.91 51.01,45.64 52.73,35.63 
			45.45,28.53 55.5,27.07 		"/>
		<polygon class="st10" points="93.58,17.96 98.08,27.07 108.13,28.53 100.85,35.63 102.57,45.64 93.58,40.91 84.59,45.64 
			86.3,35.63 79.03,28.53 89.08,27.07 		"/>
	</g>
</g>
</svg>
