<?xml version="1.0" encoding="utf-8"?>
<!-- Generator: Adobe Illustrator 23.0.2, SVG Export Plug-In . SVG Version: 6.00 Build 0)  -->
<svg version="1.1" id="레이어_1" xmlns="http://www.w3.org/2000/svg" xmlns:xlink="http://www.w3.org/1999/xlink" x="0px"
	 y="0px" viewBox="0 0 120 66" style="enable-background:new 0 0 120 66;" xml:space="preserve">
<style type="text/css">
	.st0{fill:#D49E14;}
	.st1{fill:#BD8717;}
	.st2{fill:#F5C632;}
	.st3{display:none;}
	.st4{display:inline;}
	.st5{fill:#FFFFFF;stroke:#000000;stroke-miterlimit:10;}
	.st6{fill:#F9ECA8;}
</style>
<g>
	<polygon class="st0" points="15.96,3.51 79.14,0.11 110.59,7.14 47.68,13.14 	"/>
	<polygon class="st1" points="79.14,0.11 79.14,33.1 15.96,33.1 15.96,3.51 	"/>
	<polygon class="st0" points="15.96,3.51 15.96,56.27 47.68,65.89 47.68,13.14 	"/>
	<polygon class="st2" points="47.68,13.14 47.68,65.89 110.59,59.89 110.59,7.14 	"/>
	<g class="st3">
		<path class="st4" d="M77.33,40.75l-2.74-5.64l2.2-0.22l0.81,2.03c0.24,0.66,0.48,1.28,0.74,1.96l0.06-0.01
			c0.26-0.74,0.52-1.4,0.76-2.11l0.81-2.19l2.14-0.21l-2.73,6.18l0,3.28l-2.05,0.2L77.33,40.75z"/>
		<path class="st4" d="M82.04,34.38l5.69-0.56l0,1.74l-3.63,0.36l0,1.85l3.09-0.3l0,1.74l-3.09,0.3l0,2.12l3.77-0.37l0,1.74
			l-5.83,0.57L82.04,34.38z"/>
		<path class="st4" d="M88.98,33.7l2.05-0.2l0.01,7.45l3.58-0.35l0,1.74l-5.63,0.55L88.98,33.7z"/>
		<path class="st4" d="M95.49,33.06l2.05-0.2l0.01,7.45l3.58-0.35l0,1.74l-5.64,0.55L95.49,33.06z"/>
		<path class="st4" d="M101.09,37.06c0-3,1.67-4.89,4.12-5.13c2.45-0.24,4.12,1.33,4.13,4.32c0,3-1.67,4.97-4.12,5.21
			C102.77,41.7,101.09,40.06,101.09,37.06z M107.23,36.46c0-1.84-0.78-2.85-2.02-2.73c-1.24,0.12-2.02,1.29-2.02,3.13
			c0,1.84,0.79,2.93,2.02,2.81S107.23,38.3,107.23,36.46z"/>
		<path class="st4" d="M77.15,47.33l4.3-0.42c2.61-0.26,4.64,0.27,4.64,2.7c0,1.14-0.63,2.42-1.65,2.91v0.08
			c1.28,0.21,2.28,1.07,2.28,2.77c0,2.59-2.16,3.96-4.89,4.23l-4.66,0.46L77.15,47.33z M81.32,52.01c1.38-0.14,1.99-0.79,1.99-1.71
			c0-0.98-0.65-1.3-1.97-1.17l-1.35,0.13l0,2.88L81.32,52.01z M81.59,57.39c1.55-0.15,2.35-0.79,2.35-1.95
			c0-1.12-0.79-1.49-2.35-1.34L80,54.27l0,3.28L81.59,57.39z"/>
		<path class="st4" d="M87.27,52.64c0-4.16,2.31-6.77,5.7-7.1s5.71,1.84,5.72,5.98c0,4.16-2.31,6.88-5.7,7.21
			S87.27,56.8,87.27,52.64z M95.77,51.81c0-2.55-1.09-3.95-2.8-3.78c-1.71,0.17-2.79,1.78-2.79,4.33c0,2.55,1.09,4.06,2.8,3.89
			C94.7,56.08,95.77,54.36,95.77,51.81z"/>
		<path class="st4" d="M101.8,51.08l-3.28-5.85l3.17-0.31l1.1,2.3c0.28,0.56,0.55,1.19,0.92,1.95l0.08-0.01
			c0.29-0.83,0.55-1.51,0.8-2.12l1-2.5l3.03-0.3l-3.26,6.63l3.48,6.07l-3.17,0.31l-1.24-2.47c-0.32-0.63-0.61-1.25-0.95-2
			l-0.08,0.01c-0.3,0.81-0.58,1.5-0.86,2.18l-1.17,2.71l-3.03,0.3L101.8,51.08z"/>
	</g>
	<path class="st5" d="M47.68,13.14"/>
	<polygon class="st6" points="15.96,3.51 1.81,20.39 31.82,34.7 47.68,13.14 	"/>
	<polygon class="st6" points="47.68,13.14 55.17,34.7 120,26.77 110.59,7.14 	"/>
</g>
</svg>
