<?xml version="1.0" encoding="utf-8"?>
<!-- Generator: Adobe Illustrator 23.0.2, SVG Export Plug-In . SVG Version: 6.00 Build 0)  -->
<svg version="1.1" id="레이어_1" xmlns="http://www.w3.org/2000/svg" xmlns:xlink="http://www.w3.org/1999/xlink" x="0px"
	 y="0px" viewBox="0 0 500 500" style="enable-background:new 0 0 500 500;" xml:space="preserve">
<style type="text/css">
	.st0{opacity:0.9;}
	.st1{fill:#F5B617;}
	.st2{fill:#323333;}
</style>
<g class="st0">
	<g>
		<path class="st1" d="M316,206.87c1.18-4.31-0.13-8.65-1.21-11.2c-2.22,1.65-5.54,4.74-6.7,9.05c-0.87,3.23-0.38,6.7,1.44,10.34
			C312.94,212.85,315.11,210.1,316,206.87z"/>
		<path class="st1" d="M292.95,209.84c-0.29,2.75-0.27,7.3,2.12,11.07c1.78,2.83,4.66,4.82,8.59,5.95c0.67-4.03,0.12-7.5-1.66-10.34
			C299.61,212.73,295.55,210.76,292.95,209.84z"/>
		<path class="st1" d="M244.68,242.51c-0.07-0.04-0.14-0.08-0.21-0.11c-2.56-1.37-7.94-4.38-13.46-8.19
			c-8.2-5.67-16.71-13.12-16.71-19.65v-10.16h-3.35h-3.35v10.16c0,6.53-8.5,13.98-16.71,19.65c-5.52,3.82-10.9,6.82-13.46,8.19
			c-0.07,0.04-0.14,0.08-0.21,0.11c-6.1,3.36-10.25,9.85-10.25,17.3c0,10.89,8.86,19.74,19.74,19.74c0.79,0,1.56-0.06,2.32-0.15
			c-2.55-4.02-4.05-8.77-4.05-13.88c0-5.09,1.46-10.01,4.24-14.24c0.95-1.43,2.89-1.84,4.31-0.9c1.45,0.94,1.85,2.88,0.9,4.32
			c-2.11,3.2-3.22,6.95-3.22,10.82c0,4.52,1.55,8.68,4.11,12.02c1.34,1.74,2.96,3.26,4.8,4.47c3.11,2.05,6.83,3.25,10.82,3.25
			c4,0,7.71-1.2,10.82-3.25c1.84-1.21,3.46-2.73,4.8-4.47c2.57-3.33,4.11-7.49,4.11-12.02c0-4.29-1.34-8.36-3.89-11.77
			c-1.04-1.38-0.74-3.33,0.63-4.36c1.39-1.03,3.35-0.75,4.36,0.63c3.35,4.5,5.13,9.86,5.13,15.5c0,5.11-1.5,9.86-4.05,13.88
			c0.76,0.09,1.54,0.15,2.32,0.15c10.88,0,19.74-8.86,19.74-19.74C254.93,252.36,250.78,245.87,244.68,242.51z"/>
		<path class="st1" d="M308.72,244.18c-3.38,1.8-5.91,4.92-7.53,9.3c4.53,1.12,8.54,0.79,11.93-0.99c4.53-2.38,7.14-6.88,8.43-9.78
			C318.44,242.15,313.24,241.78,308.72,244.18z"/>
		<path class="st1" d="M315.26,220.14c-2.96,1.55-5.18,4.26-6.62,8.07c3.94,1,7.44,0.74,10.41-0.79c3.97-2.05,6.27-5.96,7.41-8.48
			C323.74,218.42,319.21,218.07,315.26,220.14z"/>
		<path class="st1" d="M274.86,258.77c-0.23,3.49,0,9.25,3.21,13.91c2.39,3.49,6.13,5.87,11.15,7.11c0.66-5.14-0.21-9.5-2.6-13
			C283.42,262.1,278.19,259.81,274.86,258.77z"/>
		<path class="st1" d="M283.07,232.56c-0.31,3.16-0.25,8.36,2.52,12.67c2.07,3.22,5.38,5.49,9.89,6.75
			c0.74-4.61,0.09-8.58-1.97-11.81C290.77,235.85,286.07,233.6,283.07,232.56z"/>
		<path class="st1" d="M288.89,155.3c-1.97,0.08-3.94-0.1-5.88-0.53c1.3,3,2.29,5.65,2.99,7.68L288.89,155.3z"/>
		<path class="st1" d="M201.02,185.09c5.04,0.23,9.52-1.46,12.84-4.91c0.37-0.39,0.84-0.67,1.35-0.82c0.51-0.15,1.05-0.16,1.58-0.03
			c4.64,1.13,9.28,0.19,13.47-2.7c6.47-4.52,11.05-13.4,12.23-23.75c2.12-18.56-6.67-36.6-19.61-40.22
			c-8.18-2.28-16.17,1.94-21.45,11.31c-0.8,1.46-2.67,2-4.13,1.19c-9.45-5.11-18.52-4.4-24.19,1.89
			c-9.01,9.97-6.82,29.92,4.88,44.48C184.53,179.66,193.13,184.73,201.02,185.09z"/>
		<path class="st1" d="M347.14,52h-20.39v16.09c0,6.67-5.43,12.1-12.11,12.1c-6.67,0-12.1-5.43-12.1-12.1V52h-20.96v16.09
			c0,6.67-5.43,12.1-12.11,12.1c-6.67,0-12.1-5.43-12.1-12.1V52H236.4v16.09c0,6.67-5.43,12.1-12.1,12.1
			c-6.68,0-12.11-5.43-12.11-12.1V52h-20.97v16.09c0,6.67-5.43,12.1-12.1,12.1c-6.68,0-12.11-5.43-12.11-12.1V52h-13.36
			c-19,0-34.46,15.46-34.46,34.47v193.47c0,19.01,15.46,34.47,34.46,34.47h193.47c19,0,34.47-15.46,34.47-34.47V86.47
			C381.61,67.46,366.14,52,347.14,52z M202.03,84.41c0,0,10.12,19.13-6.62,29.84C184.76,97.47,202.03,84.41,202.03,84.41z
			 M168.54,122.94c7.04-7.8,17.99-9.4,29.06-4.47c6.72-10.08,16.81-14.56,26.95-11.72c15.71,4.4,26.52,25.41,24.05,46.84
			c-1.4,12.26-6.8,22.5-14.82,28.1c-2.26,1.58-4.64,2.72-7.09,3.43c-3.13,0.9-6.39,1.1-9.66,0.55c-4.42,3.94-9.98,5.87-16.3,5.57
			c-9.76-0.45-19.79-6.23-27.53-15.85C159.67,158.58,157.59,135.04,168.54,122.94z M235.19,285.79c-2.4,0-4.71-0.35-6.92-0.96
			c-4.6,4.14-10.66,6.68-17.33,6.68c-6.66,0-12.73-2.54-17.33-6.68c-2.21,0.61-4.52,0.96-6.92,0.96
			c-14.33,0-25.97-11.65-25.97-25.98c0-9.42,5.06-17.66,12.59-22.22c0.16-0.13,0.34-0.25,0.53-0.36
			c13.23-6.99,27.51-17.64,27.51-22.68v-13.28c0-1.72,1.4-3.12,3.12-3.12h6.47h6.47c1.72,0,3.12,1.39,3.12,3.12v13.28
			c0,5.04,14.28,15.69,27.51,22.68c0.19,0.1,0.37,0.22,0.53,0.36c7.53,4.55,12.59,12.8,12.59,22.22
			C261.16,274.13,249.52,285.79,235.19,285.79z M311.84,285.17c-5.2,2.96-11.27,3.66-18.08,2.08c-0.89-0.21-1.81-0.47-2.74-0.75
			c-0.96-0.15-1.9-0.32-2.8-0.53c-6.8-1.57-11.95-4.86-15.33-9.8c-6.48-9.47-3.83-21.44-3.71-21.94c0.37-1.59,1.88-2.63,3.49-2.39
			c0.57,0.08,12.65,1.99,19.09,11.44c1.41,2.05,2.42,4.3,3.07,6.7c1.64-1.88,3.53-3.45,5.7-4.68c9.94-5.66,21.66-2.08,22.18-1.9
			c1.55,0.49,2.46,2.09,2.09,3.68C324.7,267.57,321.82,279.49,311.84,285.17z M315.79,257.46c-4.79,2.54-10.3,3-16.41,1.38
			c-0.81-0.21-1.63-0.47-2.46-0.76c-0.86-0.16-1.71-0.34-2.51-0.55c-6.12-1.61-10.68-4.73-13.6-9.31
			c-5.59-8.75-2.86-19.5-2.74-19.95c0.38-1.42,1.78-2.33,3.22-2.06c0.49,0.07,11.36,2.12,16.95,10.88c1.21,1.9,2.07,3.96,2.59,6.16
			c1.53-1.65,3.29-3.02,5.28-4.07c9.18-4.87,19.64-1.3,20.12-1.1c1.39,0.49,2.16,1.96,1.79,3.38
			C327.91,241.91,324.97,252.61,315.79,257.46z M321.35,231.78c-4.19,2.18-9,2.55-14.33,1.1c-0.7-0.19-1.42-0.42-2.14-0.68
			c-0.75-0.15-1.49-0.31-2.2-0.5c-5.32-1.44-9.28-4.19-11.8-8.2c-4.83-7.67-2.38-17.03-2.27-17.43c0.34-1.24,1.56-2.02,2.83-1.78
			c0.36,0.07,6.54,1.29,11.45,5.73c-0.26-2.25-0.13-4.46,0.46-6.62c2.13-7.86,9.23-12.32,10.91-13.28l1.8-6.62
			c0.28-1.05,1.37-1.67,2.42-1.39c1.05,0.29,1.67,1.37,1.39,2.42l-1.8,6.62c0.96,1.68,4.84,9.11,2.71,16.97
			c-0.59,2.16-1.59,4.14-2.95,5.94c6.48-1.35,12.44,0.72,12.77,0.84c1.21,0.43,1.87,1.72,1.54,2.96
			C332.02,218.27,329.39,227.59,321.35,231.78z M338.61,157.19c-4.76,9.44-15.03,14.29-24.94,12.67c-0.5,0.02-0.91,0.04-0.94,0.04
			c-2.19,0.19-15.47,1.9-22.79,16.39c-0.77,1.52-2.62,2.12-4.13,1.36l-5.99-3.03l-6-3.03c-1.51-0.76-2.13-2.61-1.36-4.13
			c7.82-15.49-0.16-27.8-0.5-28.32c-0.07-0.11-0.12-0.22-0.18-0.34c-7.35-7.01-9.62-18.27-4.81-27.79
			c4.69-9.28,14.92-14.35,25-12.68c2.21-3.8,4.93-5.79,5.16-5.94c0.15-0.1,0.3-0.19,0.46-0.26c7.04-5.51,16.77-6.77,25.15-2.54
			c8.55,4.32,13.33,13.15,12.95,22.15c0,0.04,0.01,0.08,0.01,0.12c0.01,0.22,0.01,2.48-0.91,5.48c-0.02,0.07-0.04,0.14-0.06,0.22
			c-0.09,0.29-0.2,0.57-0.3,0.86c-0.13,0.39-0.25,0.78-0.41,1.16C341.31,136.71,343.29,147.92,338.61,157.19z"/>
		<path class="st1" d="M293.97,166.47c2.04-0.65,4.76-1.43,7.95-2.16c-1.49-1.31-2.81-2.78-3.91-4.41L293.97,166.47z"/>
		<path class="st1" d="M322.52,140.86c-0.89,0.39-1.86,0.35-2.66-0.06c-0.6-0.3-1.11-0.81-1.41-1.47c-0.71-1.55-0.02-3.37,1.52-4.07
			c6.55-2.97,8.62-7.99,9.28-10.92c0.07-0.33,0.14-0.66,0.19-0.99c0.02-0.15,0.04-0.3,0.06-0.43c0.03-0.25,0.04-0.5,0.06-0.75
			c0-0.1,0.01-0.17,0.01-0.18c0-0.23,0.02-0.45,0.06-0.66c0.19-6.53-3.34-13.05-9.66-16.23c-7.85-3.96-17.3-1.43-22.21,5.57
			c-1.69,2.58-3.27,6.68-2.07,12.33c0.35,1.66-0.7,3.29-2.37,3.64c-0.71,0.15-1.42,0.04-2.02-0.26c-0.8-0.41-1.42-1.15-1.63-2.11
			c-0.82-3.86-0.66-7.19-0.01-10.03c-7.02-0.63-13.93,3.07-17.2,9.55c-4.35,8.62-0.88,19.17,7.74,23.52
			c4.94,2.49,10.67,2.48,15.72-0.03c0.87-0.44,1.89-0.43,2.76,0c0.87,0.44,1.47,1.26,1.64,2.21c0.96,5.55,4.35,10.16,9.3,12.66
			c8.62,4.35,19.17,0.88,23.52-7.74c3.27-6.47,2.14-14.23-2.53-19.5C328.69,137.12,326.1,139.23,322.52,140.86z"/>
		<path class="st1" d="M303.59,270.74c-3.67,2.1-6.35,5.64-8,10.53c5.04,1.08,9.46,0.58,13.14-1.5c4.92-2.78,7.65-7.84,8.98-11.09
			C314.23,268.16,308.49,267.92,303.59,270.74z"/>
		<path class="st1" d="M289.72,170.71c-0.18-0.09-0.35-0.22-0.48-0.38c-0.43-0.51-0.48-1.23-0.14-1.79l7.17-11.68
			c-0.41-0.86-0.79-1.73-1.09-2.65c-0.92,0.29-1.85,0.51-2.79,0.69l-5.14,12.7c-0.25,0.61-0.87,1-1.53,0.95
			c-0.21-0.01-0.41-0.07-0.59-0.16c-0.39-0.19-0.68-0.54-0.8-0.98c-0.01-0.05-0.81-3.02-2.5-7.42c0.53,4.97,0.09,10.94-2.61,17.45
			l3.37,1.7l3.36,1.69c3.64-6.03,8.18-9.93,12.49-12.46c-4.54,1.25-7.4,2.38-7.45,2.4C290.56,170.93,290.1,170.91,289.72,170.71z"/>
		<path class="st1" d="M179.12,75.12c3.89,0,7.03-3.14,7.03-7.03v-2.03V54.38V54v-2V37.92c0-3.89-3.14-7.03-7.03-7.03
			c-3.89,0-7.03,3.15-7.03,7.03V52v2v0.38v11.68v2.03C172.09,71.98,175.24,75.12,179.12,75.12z"/>
		<path class="st1" d="M224.3,75.12c3.89,0,7.03-3.14,7.03-7.03v-2.03V54.38V54v-2V37.92c0-3.89-3.14-7.03-7.03-7.03
			c-3.89,0-7.03,3.15-7.03,7.03V52v2v0.38v11.68v2.03C217.27,71.98,220.42,75.12,224.3,75.12z"/>
		<path class="st1" d="M269.48,75.12c3.89,0,7.03-3.14,7.03-7.03v-2.03V54.38V54v-2V37.92c0-3.89-3.14-7.03-7.03-7.03
			c-3.89,0-7.03,3.15-7.03,7.03V52v2v0.38v11.68v2.03C262.44,71.98,265.59,75.12,269.48,75.12z"/>
		<path class="st1" d="M314.65,75.12c3.89,0,7.03-3.14,7.03-7.03v-2.03V54.38V54v-2V37.92c0-3.89-3.14-7.03-7.03-7.03
			c-3.89,0-7.03,3.15-7.03,7.03V52v2v0.38v11.68v2.03C307.62,71.98,310.76,75.12,314.65,75.12z"/>
	</g>
</g>
<g class="st0">
	<path class="st2" d="M235.1,411.59H233c4.07-9.72,6.17-21.15,6.17-37.83v-9.72c0-13.66-5.26-18.91-19.7-18.91h-80.39
		c-6.83,0-10.51,4.73-10.51,10.51c0,5.78,3.68,10.51,10.51,10.51h70.93c2.1,0,3.02,1.18,3.02,3.02v9.2h-75.4
		c-6.83,0-10.64,4.6-10.64,10.38s3.81,10.38,10.64,10.38h73.82c-0.79,4.6-1.84,8.67-3.28,12.48h-73.95
		c-8.01,0-11.03,5.52-11.03,10.77c0,5.39,3.15,10.64,11.03,10.64h16.81v5.25c0,7.22-3.55,10.9-8.54,11.43
		c-5.26,0.53-8.28,3.55-8.54,8.41c-0.26,5.12,3.15,8.54,7.62,9.85c2.23,0.66,4.86,0.79,6.83,0.79
		c14.32-0.13,28.24-10.11,28.24-29.95V433h21.02c0,11.12,0,22.78,0,22.78l0,0c0.03,8.37,6.5,13.18,13.32,13.18
		c6.95,0,13.32-4.67,13.35-13.18l0,0V433h10.77c7.88,0,11.03-5.26,11.03-10.64C246.13,417.11,243.11,411.59,235.1,411.59z"/>
	<g>
		<path class="st2" d="M294.99,412.9c22.33,0,37.57-9.33,37.57-30.74v-7.22c0-21.41-15.24-30.74-37.57-30.74
			c-22.33,0-37.57,9.33-37.57,30.74v7.22C257.43,403.58,272.66,412.9,294.99,412.9z M283.17,373.89c0-6.96,4.86-10.77,11.82-10.77
			c6.96,0,11.82,3.81,11.82,10.77v9.33c0,7.09-4.86,10.77-11.82,10.77c-6.96,0-11.82-3.68-11.82-10.77V373.89z"/>
		<path class="st2" d="M360.67,423.56c6.96,0,13.27-4.69,13.27-13.23l0,0v-54.96c0-8.41-6.44-13-13.27-13
			c-6.96,0-13.27,4.47-13.27,13c0,22.24,0,32.72,0,54.96l0,0C347.41,418.74,353.84,423.56,360.67,423.56z"/>
	</g>
	<path class="st2" d="M367.9,444.82c-1.58,0-3.81-0.13-5.39-0.39c-12.22-1.58-24.43-7.36-28.9-18.13c-1.38-3.34-2.96-5.79-4.8-7.51
		c-0.08-0.07-0.16-0.15-0.24-0.22c-2.51-2.22-4.94-2.94-9.21-2.94s-6.7,0.72-9.21,2.94c-0.08,0.07-0.16,0.15-0.24,0.22
		c-1.84,1.72-3.42,4.17-4.8,7.51c-4.47,10.77-16.68,16.55-28.9,18.13c-1.58,0.26-3.81,0.39-5.39,0.39
		c-5.12,0.13-9.46,4.2-9.72,10.12c-0.26,6.17,4.73,11.16,11.03,11.82c14.92,1.47,34.57-5.1,47.22-16.04
		c12.66,10.93,32.3,17.5,47.22,16.04c6.3-0.66,11.3-5.65,11.03-11.82C377.36,449.03,373.02,444.95,367.9,444.82z"/>
</g>
</svg>
