<?xml version="1.0" encoding="utf-8"?>
<!-- Generator: Adobe Illustrator 23.0.2, SVG Export Plug-In . SVG Version: 6.00 Build 0)  -->
<svg version="1.1" id="레이어_1" xmlns="http://www.w3.org/2000/svg" xmlns:xlink="http://www.w3.org/1999/xlink" x="0px"
	 y="0px" viewBox="0 0 147.06 35.61" style="enable-background:new 0 0 147.06 35.61;" xml:space="preserve">
<style type="text/css">
	.st0{fill:#E83E44;}
	.st1{fill:url(#SVGID_1_);}
	.st2{fill:#FFFFFF;}
	.st3{fill:#595757;}
</style>
<g>
	<path class="st0" d="M35.61,17.81c0,9.83-7.98,17.8-17.81,17.8C7.97,35.61,0,27.64,0,17.81C0,7.97,7.97,0,17.81,0
		C27.63,0,35.61,7.97,35.61,17.81z"/>
	
		<linearGradient id="SVGID_1_" gradientUnits="userSpaceOnUse" x1="-971.0762" y1="495.8358" x2="-982.7428" y2="505.1933" gradientTransform="matrix(1 0 0 1 987.5801 -473.4385)">
		<stop  offset="0" style="stop-color:#F7F8F8"/>
		<stop  offset="0.3428" style="stop-color:#F1F2F2"/>
		<stop  offset="0.9003" style="stop-color:#E0E1E1"/>
		<stop  offset="1" style="stop-color:#DCDDDD"/>
	</linearGradient>
	<polygon class="st1" points="26.25,14.57 26.25,14.58 26.25,14.59 	"/>
	<g>
		<path class="st2" d="M8.63,13.59c-0.56-0.34-1.2-0.43-1.84-0.34c1.17-1.24,1.8-2.6,1.8-3.96c0-0.12,0-0.25-0.02-0.38
			c-0.06-0.85-0.45-1.48-1.06-1.7C6.92,6.99,5.8,7.1,4.04,8.91L2.98,10.1c-0.29,0.36-1.41,2.05-1.62,3.8
			C1.01,16.89,1.24,19.87,2,22.52c0.09,0.31,0.37,1.05,1.06,1.33c0.73,0.3,1.42-0.06,2.03-0.38l0.16-0.08l0.63-0.28l0.61-0.27
			l0.75-0.33c0.54-0.22,1.04-0.42,1.53-0.83c0.65-0.56,1.13-1.28,1.38-2.11c0.13-0.43,0.21-0.89,0.26-1.42
			c0.04-0.41,0.08-1.21-0.07-1.92C10,14.68,9.23,13.94,8.63,13.59z M2.97,15.82c0,0.01,0.03,0.39,0.03,0.39
			c-0.01,0.09,0.04,0.17,0.12,0.2c0.07,0.03,0.15,0.02,0.22-0.04C4,15.82,5.01,15.32,5.82,15.6c0.63,0.22,1.06,0.87,1.29,1.94
			c0.46,2.25-1.08,3.33-2.04,3.77l-0.03,0.01l-1.23,0.6c0,0-0.07,0.03-0.15-0.01c-0.08-0.04-0.1-0.09-0.15-0.22
			c-0.84-3.09-1.12-6.33-0.81-9.36c0.03-0.23,0.14-0.5,0.31-0.73l1.03-1.1l0.12-0.13c0.56-0.54,1.09-0.82,1.37-0.7
			c0.24,0.1,0.29,0.48,0.3,0.78c0.05,1.61-0.85,3.25-2.74,5.03C3.09,15.49,2.95,15.61,2.97,15.82z"/>
		<path class="st2" d="M22.61,4.21c-0.35-1.18-0.91-1.43-1.07-1.49c-1.48-0.47-3.02-0.57-4.51-0.31C14.79,2.82,12.85,4,11.56,5.72
			c-1.35,1.81-1.87,4.07-1.47,6.36c0.41,2.29,1.56,4.15,3.36,5.37c2.11,1.42,4.92,1.85,7.92,1.22c1.77-0.38,3.24-1.08,4.37-2.05
			c0.51-0.44,0.6-1,0.6-1.39c0,0,0.03-0.32-0.22-1.31c-0.07-0.24-0.17-0.32-0.34-0.32c-0.13,0-0.26,0.14-0.28,0.17
			c-0.84,0.98-2.13,1.66-3.74,1.98c-4.13,0.79-7.31-1.14-8.1-4.92c-0.34-1.64-0.06-3.21,0.8-4.43c0.86-1.24,2.26-2.06,3.96-2.31
			c1.29-0.19,2.6-0.03,3.78,0.46C22.21,4.55,22.72,4.7,22.61,4.21z"/>
	</g>
</g>
<g>
	<path class="st3" d="M51.78,29.66H49.3c-0.55,0-5.58,0.04-5.58-3.72V9.85c0-3.37,4.1-3.72,5.27-3.72h2.27
		c7.44,0,9.51,3.44,9.51,6.13c0,2.58-1.45,4.24-4.13,4.96c2.58,0.62,5.06,2.58,5.06,5.79C61.7,26.42,59.12,29.66,51.78,29.66z
		 M48.99,26.59h2.38c3,0,5.69-0.9,5.69-3.79c0-4.44-4.24-4.41-7.34-4.41c-0.14,0-0.31-0.07-0.31-0.28v-1.27
		c0-0.21,0.17-0.28,0.31-0.28c3.2,0,6.61-0.48,6.61-4.1c0-2.34-1.83-3.27-5.24-3.27h-2.1c-0.62,0-1.03,0.38-1.03,0.96v15.5
		C47.96,26.25,48.37,26.59,48.99,26.59z"/>
	<path class="st3" d="M76,9.4c-4.72,0-8.2,3.1-8.2,8.65c0,5.13,3.48,8.03,8.2,8.03c2.89,0,4.75-0.83,6.44-2.1
		c0.1-0.07,0.21-0.14,0.31-0.14c0.21,0,0.34,0.24,0.34,0.52v0.76c0,1.76-0.45,2.34-0.89,2.65c-1.76,1.24-4.34,1.72-6.55,1.72
		c-7.23,0-12.23-4.58-12.23-11.44c0-7.34,5-12.09,12.23-12.09c2.21,0,4.82,0.45,6.55,1.76c0.45,0.34,0.89,0.9,0.89,2.62v0.72
		c0,0.45-0.17,0.62-0.34,0.62c-0.07,0-0.14-0.04-0.21-0.1C80.65,10.05,78.89,9.4,76,9.4z"/>
	<path class="st3" d="M94.63,15.74c-2.76,0-5.55,1.58-5.55,5.2c0,3.58,2.79,5.27,5.55,5.27c1.83,0,3.1-0.48,4.24-1.31
		c0.07-0.07,0.17-0.1,0.28-0.1c0.21,0,0.41,0.17,0.41,0.48v1.28c0,1.86-3.27,2.58-5.79,2.58c-5.06,0-8.61-3.31-8.61-8.2
		c0-4.41,3.55-8.13,8.61-8.13c2.51,0,5.79,0.83,5.79,2.58v1.27c0,0.31-0.21,0.48-0.41,0.48c-0.1,0-0.21-0.04-0.31-0.1
		C97.8,16.25,96.46,15.74,94.63,15.74z"/>
	<path class="st3" d="M108.58,12.81c6.23,0,8.27,2.45,8.27,6.51v5.79c0,3.06-2.62,4.03-5.3,4.03h-3.17c-4.65,0-6.92-2.14-6.92-4.79
		c0-2.86,2.17-5.1,7.51-5.1h3.96v-0.24c0-2.34-1.34-3.27-4.38-3.27c-1.96,0-3.44,0.38-5.17,1.34c-0.1,0.07-0.21,0.1-0.31,0.1
		c-0.24,0-0.41-0.21-0.41-0.52v-1.27C102.66,13.71,106.66,12.81,108.58,12.81z M112.92,23.97v-2.14h-3.69c-3,0-3.86,1.03-3.86,2.51
		c0,1.27,1.17,2.21,3.55,2.21C111.96,26.55,112.92,26.14,112.92,23.97z"/>
	<path class="st3" d="M130.25,13.88v1.34c0,0.31-0.1,0.52-0.52,0.52h-0.72c-3.14,0-5.65,0.72-5.65,3.41v9.65h-3.93v-10.4
		c0-3.48,3.55-5.58,8.4-5.58h1.14C129.84,12.81,130.25,13.12,130.25,13.88z"/>
	<path class="st3" d="M147.06,6.3V25c0,3.17-2.62,4.13-5.1,4.13h-3.2c-6.1,0-7.65-3.65-7.65-8.2c0-4.62,2.24-8.13,7.96-8.13
		c1.72,0,3.07,0.52,4.03,1.2V6.3H147.06z M135.04,20.97c0,2.89,0.69,5.58,4.1,5.58c2.89,0,4-0.62,4-2.48v-3.65
		c0-2.55-0.83-5.03-3.82-5.03C136,15.39,135.04,18.25,135.04,20.97z"/>
</g>
</svg>
